<svg width="20" height="20" fill="none" xmlns="http://www.w3.org/2000/svg"><g clip-path="url(#a)" fill="#000"><path d="M17.756 9.4H9.618v1.2h8.138l-2.01 2.1.861.9 2.968-3.1a.772.772 0 0 0 0-.9l-2.968-3.1-.861.9 2.01 2ZM8.374 19.4v-6.2a.663.663 0 0 0-.18-.411.611.611 0 0 0-.395-.189H3.587c.005.317.127.619.342.843.214.224.503.352.806.357H7.13v5H3.587a1.645 1.645 0 0 1-.669-.095 1.7 1.7 0 0 1-.581-.357 1.785 1.785 0 0 1-.405-.565 1.854 1.854 0 0 1-.164-.683v-14c-.008-.463.158-.91.462-1.247A1.664 1.664 0 0 1 3.395 1.3H7.13v5H4.831a1.144 1.144 0 0 0-.807.357 1.247 1.247 0 0 0-.342.843h4.213a.611.611 0 0 0 .394-.189.663.663 0 0 0 .18-.411V.6a.864.864 0 0 0-.251-.402A.808.808 0 0 0 7.799 0H3.587A2.762 2.762 0 0 0 2.48.19a2.856 2.856 0 0 0-.953.617 3 3 0 0 0-.653.952A3.111 3.111 0 0 0 .619 2.9v13.9c-.028.398.023.797.15 1.173.128.376.328.72.589 1.011.26.292.576.523.927.68.35.158.728.238 1.11.236H7.8a.46.46 0 0 0 .402-.106.497.497 0 0 0 .173-.394Z"/></g><defs><clipPath id="a"><path fill="#fff" transform="translate(.619)" d="M0 0h19.148v20H0z"/></clipPath></defs></svg>